<svg width="12" height="15" viewBox="0 0 12 15" fill="none" xmlns="http://www.w3.org/2000/svg">
<path fill-rule="evenodd" clip-rule="evenodd" d="M9 4C9 5.65685 7.65685 7 6 7C4.34315 7 3 5.65685 3 4C3 2.34315 4.34315 1 6 1C7.65685 1 9 2.34315 9 4ZM10 4C10 6.20914 8.20914 8 6 8C3.79086 8 2 6.20914 2 4C2 1.79086 3.79086 0 6 0C8.20914 0 10 1.79086 10 4ZM1 13C1 11.3431 2.34315 10 4 10H8C9.65685 10 11 11.3431 11 13V14H1V13ZM0 13C0 10.7909 1.79086 9 4 9H8C10.2091 9 12 10.7909 12 13V15H0V13Z" fill="#1C2A39"/>
</svg>
