<svg width="14" height="17" viewBox="0 0 14 17" fill="none" xmlns="http://www.w3.org/2000/svg">
<path fill-rule="evenodd" clip-rule="evenodd" d="M6 1H8C9.105 1 10 1.89543 10 3V5H4V3C4 1.89543 4.895 1 6 1ZM3 5V3C3 1.34315 4.343 0 6 0H8C9.657 0 11 1.34315 11 3V5H11.216C12.261 5 13.129 5.80364 13.21 6.84491L13.832 14.8449C13.923 16.0071 13.004 17 11.838 17H2.16201C0.996005 17 0.0770022 16.0071 0.168002 14.8449L0.790004 6.84491C0.871004 5.80364 1.739 5 2.784 5H3ZM11 6H3H2.784C2.262 6 1.82701 6.40182 1.78701 6.92245L1.165 14.9225C1.119 15.5035 1.57901 16 2.16201 16H11.838C12.421 16 12.881 15.5035 12.835 14.9225L12.213 6.92246C12.173 6.40182 11.738 6 11.216 6H11Z" fill="#1C2A39"/>
</svg>
